<svg id="Layer_1" data-name="Layer 1" xmlns="http://www.w3.org/2000/svg" viewBox="0 0 118.6 25.5"><defs><style>.cls-1{fill:#fff;}</style></defs><path d="M373.2,329.5h7.1l-5.4,5a14.4,14.4,0,0,1-1.7.8l3.9,3.5c-4.5-1-8.9-4.2-13.2.9l4.7,3.1c-5.2.7-9.3-5.9-13,.2l4.3,3.7c-18.5,4.4-36.4,7.6-54.9,4.7-3.9-.6-6.3-2.9-9.2-5.4s-10-5.8-15.5-7.5-12.1-2.2-18.6-3.3c2.1-.6,4.5-2.3,6.7-2,6,.8,12.2,1.8,17.9,3.9,28.4,10.9,55.5,5.5,82.2-6,.2-.1.2-.3.3-.4Zm-73.9,16.1a15.9,15.9,0,0,0-.7,2l12.2,4.3C308.1,344.6,302.6,347.8,299.3,345.6Zm26.3,2a13.7,13.7,0,0,0-.2,1.9l11.3.9C333,344.6,329,347.9,325.6,347.6Zm-13.6,0-.3,2.2,12.4,1.7C320.4,345.7,315.8,348.3,312,347.6Zm25.9-2.2v2.5l8.9.5c.1-.7.1-1.3.2-2Z" transform="translate(-261.7 -327.1)"/><path d="M373.2,329.5l-4.4,1.3c-9,2.3-17.9,4.9-27,6.8a109.2,109.2,0,0,1-41.1,1.3c8.2,0,16.5.5,24.6-.2a176.5,176.5,0,0,0,25-4.3c8.2-1.9,16.2-4.8,24.4-7.3Z" transform="translate(-261.7 -327.1)"/><path class="cls-1" d="M299.3,345.6c3.3,2.2,8.8-1,11.5,6.3l-12.2-4.3A15.9,15.9,0,0,1,299.3,345.6Z" transform="translate(-261.7 -327.1)"/><path class="cls-1" d="M325.6,347.6c3.4.3,7.4-3,11.1,2.8l-11.3-.9A13.7,13.7,0,0,1,325.6,347.6Z" transform="translate(-261.7 -327.1)"/><path class="cls-1" d="M312,347.6c3.8.7,8.4-1.9,12.1,3.9l-12.4-1.7Z" transform="translate(-261.7 -327.1)"/><path class="cls-1" d="M337.9,345.4l9,1c-.1.7-.1,1.3-.2,2l-8.9-.5Z" transform="translate(-261.7 -327.1)"/></svg>