<svg id="Layer_1" data-name="Layer 1" xmlns="http://www.w3.org/2000/svg" viewBox="0 0 123.3 43.3"><defs><style>.cls-1{fill:#fff;}</style></defs><path d="M-870.1,337.1l-4.6-2.1-.4-1.7c7.7-4.1,15.2-8.6,23.1-12.3a106.2,106.2,0,0,1,37.2-10.2c3.5-.3,6.7-3,10.6-4.8l-1.7,3.6.6,1.2,10.3-5.6-3,4.4a4.1,4.1,0,0,1,.5.9l6.6-4.1c-.3,1.3-.7,2.5-1,3.7a4.4,4.4,0,0,1,.8,1.1l8.8-6.6-4,5.9.6,1.2,8.1-4c-.6,1-1.2,2.2-2.2,4.1l4.3-1.6c.9,3,2.2,2.8,8.1-2-1.1,2.1-1.6,3.4-2.2,4.6l.6.8,4.8-3.3c-.4,1.4-.8,2.6-1.4,4.8l6.3-2.2-1.2,3.1,2.5-1.3,4.4,3.2a9.3,9.3,0,0,1-.5,1l-37.8-6.4c3.9,13.9-.6,23.7-11.7,31,18.3-2.8,35.1-9.1,51.8-17.3-1.1,2.3-2,4.1-2.9,6.1a24.9,24.9,0,0,0-4.5.2c-.2,0-.2,1.8-.2,2.6-1.6-.1-3.5-.9-5-.3s-1.4,2.5-1.8,3.4l-8.2-.5c.3,2.1.4,3.2.6,4.3a4.5,4.5,0,0,1-1.2,0c-3.3-4.3-6.9-.9-9.8.1-9.5,3.4-19.4,4.8-29.3,5.5a125.9,125.9,0,0,1-50.1-7c-1.9-.6-3.5-2.2-5.2-3.4,15,6.2,30.8,8,47,8-10.7-5.8-18.4-13.1-16.2-28.1l-36,16.7Zm47.9-22.9c-4.7,1.1-8.9,1.9-12.9,3a2.7,2.7,0,0,0-1.6,2.2c0,2.8-.1,5.7.7,8.3,4.6,13.5,18.8,18.7,31.3,11.9,7.8-4.4,12.3-10.7,11.5-19.9-.5-6.6-.7-6.7-7.5-6.8h-9c-2.4.1-5.6.2-4.4,3.5s3.4,3.3,5.5,4.3,2.7-.5,4-.8c1.3,7-1.4,12.8-6.8,15.3-3.7,1.8-9,.5-12.3-2.9S-827.3,322.1-822.2,314.2Z" transform="translate(875.1 -304.6)"/><path class="cls-1" d="M-822.2,314.2c-5.1,7.9-5.4,13.9-1.5,18.1s8.6,4.7,12.3,2.9c5.4-2.5,8.1-8.3,6.8-15.3-1.3.3-3,1.3-4,.8s-4.9-2.4-5.5-4.3,2-3.4,4.4-3.5h9c6.8.1,7,.2,7.5,6.8.8,9.2-3.7,15.5-11.5,19.9-12.5,6.8-26.7,1.6-31.3-11.9-.8-2.6-.7-5.5-.7-8.3a2.7,2.7,0,0,1,1.6-2.2C-831.1,316.1-826.9,315.3-822.2,314.2Z" transform="translate(875.1 -304.6)"/></svg>