<svg id="Layer_1" data-name="Layer 1" xmlns="http://www.w3.org/2000/svg" viewBox="0 0 753.8 858.5"><path d="M786.7,699.6c-.9,2.1-1.9,4-2.7,6.1a220.4,220.4,0,0,0-15.8,71.9q-3.3,63-4,126.2c-.3,18.8,2.1,37.6,3.2,56.3.3,4,.1,7.9.1,11.9l-1.7.9c-3.7-4-8.4-7.5-10.9-12.2-25.9-47.4-47.8-96.3-52.4-151.1A487.9,487.9,0,0,1,706.4,697c.3-1.9.5-3.9.7-5.3l-33.2-13.9.3-2.2c3-1.1,5.9-2.4,8.9-3.2,8.7-2.2,17.5-3.9,26.2-6.3a9.5,9.5,0,0,0,4.9-4.6c4.1-8.8,7.7-18,12-26.8,1.7-3.5,5-6.4,7.5-9.5l1.1.7-17.2,36.6,1.3,1.2c33.8-11.7,67.7-23.7,97.9-43.4s59.4-40.4,89.6-61c-1.1,3-1.6,6.5-3.4,9a45.7,45.7,0,0,1-9.5,10.1c-30.5,23-61.2,45.8-95.5,62.6s-67.9,29.9-105.2,35a16.5,16.5,0,0,0-6.6,2c8.3,2.5,16.6,5.6,25,7.4,18.9,4.2,37.9,7.7,57.3,7.4,39.4-.6,76.2-11.6,111.3-28.4a308.1,308.1,0,0,0,80-55.7c6.2-5.9,6.1-5.9,14.6-2.3-7.5,7.1-14.4,14.2-21.9,20.6-42.8,36.2-91.3,60.5-146.9,70.1-2.6.4-5.2.9-7.8,1.2-6.6.9-6.6.9-5.5,7.7,7.4,45,23.9,86.5,48,125,26.9,42.8,60.5,79.8,97.7,113.7,11.2,10.2,22.7,20,34.4,29.7a19.4,19.4,0,0,0,9.7,4.3c23.2,2.6,46.2.1,67.7-8.5,11-4.4,20.9-12.4,30-20.3,83.3-72.4,144.1-159.8,176.6-265.9.7-2.4.7-5.9,5.1-3.7a412.4,412.4,0,0,1-20.8,63.4c-34.7,82.5-86.3,152.8-154.1,211-7.3,6.3-14.6,13-22.9,17.6s-18.5,9-28.3,10.5c-16,2.4-32.4,2.4-48.7,3.7-8,.6-14.5-1.9-20.6-6.9-45.7-38.4-87.9-80-121.4-129.8-25.8-38.3-44-79.7-53-125.1-1.6-8.1-2.6-16.4-3.9-24.6Zm-4.5,1.1c-11.7-.7-23.7-.9-35.5-2.3s-23.5-3.9-36.1-6.2c-4.2,44.5-5.7,88.9,1.3,133.3,4.5,28.2,35.8,112.2,46.5,124-.8-12-2.3-24.5-2.1-36.9.6-36.5,1.4-72.9,3.2-109.3,1-23.1,4.2-46.1,10.8-68.4C773.8,723.2,778.3,711.8,782.2,700.7Z" transform="translate(-518.9 -128.1)"/><path d="M533.9,159.2c.6.9,1.3,1.4,1.5,2.1,9.5,31.8,31.7,50.1,62.8,58.8a96.5,96.5,0,0,0,42.1,1.9,26,26,0,0,0,11.4-4.6c15.8-11.9,31.2-24.4,47.1-36.2,39.3-29.1,82.9-47.7,131.9-52.1,50.9-4.4,99.8,5.4,147.6,21.7,12,4,23.6,9,35.3,13.8,2.8,1.1,5.2,3.2,8.2,5.1-3.9,4.2-7.4,2.7-10.7,1.4-11.8-4.5-23.5-9.3-35.4-13.6a396,396,0,0,0-108.2-22.1c-43.7-2.8-84.8,7.1-124.2,26-21.7,10.3-40.8,24.1-59.6,38.8-11.5,9-24,16.8-36.5,24.4-8.3,5-18,5.7-27.6,5.3-32.1-1.6-58.7-13.7-76.8-41.4-3.9-6-6.6-12.7-10.9-19.1.5,6.3.7,12.7,1.7,18.9,9.2,54.8,60.8,104.8,103,116.9,5.1,1.5,10.2,3.6,16.3,5.8-4.5,3.5-8.3,7-12.6,9.6-11.5,7-23.4,13.4-34.8,20.5-14.7,9.1-28.3,19.5-38.8,33.4a63.6,63.6,0,0,0-5.9,9.3c-4.7,9.2-2.6,18,6,24,3.5,2.5,7.5,4.2,12.2,6.8-2.6,0-4.5.3-6.2-.1-15.9-2.9-23.9-18.6-16.9-33.2,5.8-11.9,14.9-21.1,24.9-29.6,17.2-14.5,36.8-25.1,56.5-35.7l4.4-2.4c.2-.1.3-.5.5-.9-5.4-1.4-10.9-2.5-16.1-4.3a107.8,107.8,0,0,1-33.5-18.5c-30.2-24.8-53.8-54-61.8-93.5C528.3,183.9,527.5,171.5,533.9,159.2Z" transform="translate(-518.9 -128.1)"/><path d="M993.9,580.2l-7.6-4.1a3.6,3.6,0,0,1-.8-.9c37-43.7,72-89,101.3-138.4s52.7-101.2,71.8-156c.3,3.1,1.1,6,.6,8.6q-2.2,10.8-5.4,21.3c-.9,2.8-.5,4.4,1.8,6.3a265.2,265.2,0,0,1,52.5,59.8c14.4,22.5,21.4,47.5,24.3,73.7.3,3,1.4,4.4,4.1,5.3,11.3,3.8,18,11.8,22.1,22.8a212.2,212.2,0,0,1,12.8,62.8c1.3,22.7,1,45.6,1.2,68.3.1,8-.2,8-8.3,8,0-4.3-.2-8.6,0-12.9,1.6-37.9.2-75.5-8.5-112.6-.9-4.2-2.4-8.3-3.7-12.4-4.1-13.4-13.6-20.8-26.4-24.9a4.6,4.6,0,0,1-2.7-3.2c-3.1-44.4-25.3-79.6-53.5-111.9-5.8-6.6-11.9-13-18.6-20.3-18,48.4-38.9,94.6-65.8,137.9S1027,540.9,993.9,580.2Z" transform="translate(-518.9 -128.1)"/><path d="M676.8,457.7c-1.4,3.3-2.5,6.8-4.3,9.8a29.9,29.9,0,0,1-6.2,7.1c-20.2,16.6-42.5,29.4-68.1,35.2s-49.8-.8-66.9-23.4c-2.3-3-4.8-5.9-7.2-8.8l-1.4.6c2.4,10.2,4.4,20.5,7.4,30.5,9.4,31.2,26.5,56.9,54,75.1,11.1,7.3,23.2,12.2,36.5,13.7a9.7,9.7,0,0,1,4.2,1.3,31.9,31.9,0,0,1-19.9,3.3c-17.1-2.8-30.8-12.1-43.1-23.7-24.3-23-37.3-51.8-41.4-84.8-.8-6.6-1.1-13.2-1.5-19.9a31.9,31.9,0,0,1,.5-5.4c5,4.9,9.6,9.3,14.3,13.7s9,9.5,14.2,13.2c16.2,11.8,34.3,12.3,52.6,7C629.3,493.8,654,478.3,676.8,457.7Z" transform="translate(-518.9 -128.1)"/><path d="M676.1,448.7a16.1,16.1,0,0,1-11.1,8.8c-11.8,3-23.5,6.2-35.5,7.7a168.8,168.8,0,0,1-58-2.7,65.8,65.8,0,0,1-25.6-11.8c-3.2-2.4-6.9-4-10.3-6.1a45.9,45.9,0,0,1-4.1-3.6c1.3-1.3,2.4-3.1,4-3.8,8.7-3.7,17.6-7,26.3-10.7,5.3-2.3,10.2-5.3,15.3-7.9.8,2.9.3,4.8-3.9,7.3-6.5,3.9-13.4,7.3-20.1,10.9-2.5,1.3-5.1,2.3-8.4,3.8,6.8,5.2,13.6,9.3,21.5,11.4,18.8,5,37.9,4.9,57,3.3,14.9-1.3,29.7-4,44.5-6C670.2,448.9,672.8,448.9,676.1,448.7Z" transform="translate(-518.9 -128.1)"/><path d="M816.4,608c3.6-5.9,6.4-12.6,11.1-17.5,14.9-15.6,29.7-31.5,46-45.6C935.7,491.2,995,434.5,1049,372.6c10.8-12.3,20.7-25.3,31.3-37.7,5.9-6.8,12.4-13.1,18.7-19.6l1.4,1.3c-32.9,37.7-65.4,75.7-98.9,112.9s-71.1,71-108.8,104.3c-19.5,17.2-38.2,35.2-56.8,53.3-6.8,6.5-12.3,14.4-18.4,21.6Z" transform="translate(-518.9 -128.1)"/><path d="M619,654.8c4.4,0,8.7.2,13.1,0,32.2-1.6,61.8-10.9,87.4-31.1,6.6-5.2,12.9-10.9,19.3-16.3l1.5,1c-1.6,3.3-2.5,7.1-4.8,9.7-5.5,6-10.9,12.5-17.5,16.9-34.9,23-72.8,33-114.4,24.5-3.2-.7-8-.4-8.1-5.1s4.8-4.2,7.9-5.1l34.3-9a21.3,21.3,0,0,1,7.2-.5c-2.4,5.4-7.5,6.6-12,8.5s-9.3,3.2-13.9,4.8Z" transform="translate(-518.9 -128.1)"/><path d="M1098.2,299.2c-10,9-19.7,18.3-30,26.8-24.6,20.3-52.4,35.9-79.6,52.3-41.7,25.2-84.3,48.4-130.7,63.9-29.6,10-59.5,19.2-89.1,29.5-18.5,6.4-36.7,13.8-54.7,21.6-27.7,12.1-52.2,29.2-74.2,49.9a5,5,0,0,1-3.3,1.7l3.3-3.4c28.5-28.6,62.8-48,100.5-61.6q50-18,100.6-34.2c51.2-16.4,98.8-40.3,144.5-68.2,27.7-16.9,56.1-32.7,81.4-53.3,7.7-6.4,14.9-13.3,22.4-19.9,2.5-2.2,5.1-4.2,7.7-6.3Z" transform="translate(-518.9 -128.1)"/><path d="M946.3,687.4c5.9,11.9-5,27.6-29.5,42.9,27.6,13.3,52.4,31.5,81.8,40.6-.1.7-.3,1.4-.4,2-5.6-.6-11.6-.1-16.8-2a206.7,206.7,0,0,1-25.8-11.8c-11.8-6.2-23.1-13.1-34.9-19.4-4.2-2.3-9-3.4-13.4-5.3-1.5-.6-3.5-2.1-3.6-3.3s1.7-3.1,3.1-3.8c6.5-3.6,13.4-6.6,19.8-10.5,9.9-6.1,16.5-14.8,18.5-26.6A15.7,15.7,0,0,1,946.3,687.4Z" transform="translate(-518.9 -128.1)"/><path d="M638.5,441.2c13.6-5.5,23.4-15.9,33.6-25.5,14.1-13.4,26.9-28.2,41.1-41.5s28.9-25,43.4-37.4a38.6,38.6,0,0,1,4.4-3.4c-20.4,1.8-39.3,4.9-57.1,12-14.6,5.9-28.5,13.5-42.7,20.4-11,5.3-21.7,11.1-34.1,12.4a46.1,46.1,0,0,1-12.8-.6c20.1,1.2,36.9-8.1,53.2-17.5,29.2-16.9,60.7-25.9,94.1-29.1a16.8,16.8,0,0,0,6.6-1.9c22.3-14.3,47.4-20.6,73.1-25,11-1.8,22-3.2,33-4.8l.3,1.7c-7.8,1.3-15.6,2.4-23.4,3.8-12.4,2.4-24.8,4.6-37.1,7.5-29.5,6.9-54.4,22.4-76.4,42.4-18.4,16.7-35.3,34.8-53.3,51.9-10.7,10.2-22,19.8-33.3,29.3-3.4,2.8-7.9,4.4-11.9,6.5Z" transform="translate(-518.9 -128.1)"/><path d="M736.9,674.2a98,98,0,0,0,34.2-4.1c25.3-7.8,47.8-21,69.6-35.5,44.1-29.4,85.1-62.8,123.7-99.1l4.4-4.1a12.9,12.9,0,0,1,4.8-2.9c-2.6,3.2-5,6.7-7.9,9.7-33,33.1-69.6,61.8-107.7,88.7-22.7,16.1-46.2,30.9-72.3,41.2-13.6,5.4-27.5,8.8-42.3,7.4A49.8,49.8,0,0,1,736.9,674.2Z" transform="translate(-518.9 -128.1)"/><path d="M1207,553.6c-4.6.4-9.4,1.7-13.8.9-10.6-2-21.8-3.2-31.3-7.8-24.7-12-49.3-10.4-74.4-3.4-16.2,4.4-32.2,9.2-48.4,13.8a41.2,41.2,0,0,1-7.8,1.4c-1.2,0-2.4-1.2-3.6-1.9.9-1.2,1.6-3.1,2.7-3.4,4.2-1.2,8.5-1.7,12.7-2.9,14.4-4.1,28.5-8.9,43-12.4,10.7-2.5,21.6-3.7,32.5-5,12.9-1.5,25,1.9,37,6.5s23.9,9,36.1,12.5c4.7,1.4,10,.2,15,.2Z" transform="translate(-518.9 -128.1)"/><path d="M674.6,644.6c-.7-15.4,4.5-62.4,20.3-81.3a91.5,91.5,0,0,0-22.5,18.6c-6.4,7.3-12.2,15.1-18.6,22.5,6.7-23.2,16.2-44.9,32.4-64l-46.4,18.7c17.1-8.8,34.5-16.7,53.5-21.1-17.8,15.6-27.8,35.6-34.8,57.6,11.2-14.4,23.5-27.5,40.6-35.5-18.3,22.5-19.6,49.8-23.1,76.9,23.5-58.5,71.4-86.8,128-104.2-8.7,3.6-17.3,7.3-26.1,10.8a225.9,225.9,0,0,0-52.3,29.8c-23.4,17.6-37.5,41.9-49.4,67.9C675.6,642.4,675.2,643.5,674.6,644.6Z" transform="translate(-518.9 -128.1)"/><path d="M988.5,407.2c-3.4,5-6.5,10.3-10.2,15.1-14,18.2-31.5,32.9-48.9,47.7-44.6,38-94.7,66.9-148.2,90.5-8.2,3.6-16.2,7.5-24.8,10.2,5.7-2.9,11.4-6,17.2-8.8,32.5-15.2,65-30.7,95.2-50.4,37.7-24.7,73.1-52.4,103.4-86,5.4-6,10.1-12.7,15.1-19.2Z" transform="translate(-518.9 -128.1)"/><path d="M594.9,601.6c-7.9,6.1-17.1,4.8-26.3,5.9,10.4,16.1,29.2,18.1,43.7,26.9l-.4,2c-2.8.2-5.7,1.1-8.3.6-15.3-2.9-28.5-9.8-38.6-22-2.4-2.8-4.8-5.5-7-8.4s-1.6-4.8,1.8-4.9C571.2,601.5,582.7,601.6,594.9,601.6Z" transform="translate(-518.9 -128.1)"/><path d="M581.6,381.7c78.8-41.2,161.9-71,249.9-86.6a92.1,92.1,0,0,1,15.9-1.6c-93.1,15.2-180.3,47.7-264.8,88.2A1.6,1.6,0,0,1,581.6,381.7Z" transform="translate(-518.9 -128.1)"/><path d="M789.6,675.6c35.5-11,65-32.4,93.9-54.7,20.9-16.1,41.8-32.4,62.4-49,7-5.6,13.1-12.3,20.1-18.3-1.8,2.6-3.1,5.7-5.4,7.7-13.5,12.1-26.7,24.6-41,35.6q-35,27-71.2,52.3A176.5,176.5,0,0,1,792,675.1Z" transform="translate(-518.9 -128.1)"/><path d="M1111.4,229.9c-60.7,71.6-137.6,118.2-226.4,146C972.7,346.3,1049.5,299.9,1111.4,229.9Z" transform="translate(-518.9 -128.1)"/><path d="M915.9,192.5c-75.6,1.4-149.1,11.4-220,37.3C730,210.1,860.8,188,915.9,192.5Z" transform="translate(-518.9 -128.1)"/><path d="M738.1,515.6c16.8-9.8,141.4-49,160.2-50.5C844,481.8,789.5,493.5,738.1,515.6Z" transform="translate(-518.9 -128.1)"/><path d="M939.4,312.4c-37.4,11.9-74.1,26.9-114.2,28l-.2-1.6h6.7c2.3-.1,4.7.1,6.9-.4,21.5-5.3,42.9-10.3,64.2-16.1,12.1-3.2,24-7.6,36-11.4Z" transform="translate(-518.9 -128.1)"/><path d="M1160.8,669.1l7.3,7.1c1.4-8.1,2.9-16.4,4.4-25.3l-8.7,3.3,14.5-8c-1.3,10.5,4,18,8.1,25.8-2.1-2.7-5-5.1-6.3-8.2s-2.8-9.2-4.1-13.8c-3.3,9.3-6.6,18.5-4.8,29.1l15.2-7.1,8.5-3.3.3.8-26.6,12C1165.9,677.1,1163.3,673.1,1160.8,669.1Z" transform="translate(-518.9 -128.1)"/><path d="M1155,576.2c-47-.8-51-.3-102.8,14.2C1069.8,578.6,1137.3,569.2,1155,576.2Z" transform="translate(-518.9 -128.1)"/><path d="M606,427.9c7,2.6,12.7,1.2,17.9-2.2,12.1-7.8,24.1-15.9,36.1-24l28.5-19.3c1.4-1,3.1-1.6,5.7-3-13,9.2-24.8,17.9-36.9,26.1s-23.6,15.5-35.7,22.8C615.5,432,611.4,431.5,606,427.9Z" transform="translate(-518.9 -128.1)"/><path d="M887.2,340.1c-16.4,9.3-49.4,15.7-63.2,13.8,7.3-.9,18.7-1.8,29.8-4.1S875.7,343.5,887.2,340.1Z" transform="translate(-518.9 -128.1)"/><path d="M672.2,382.9l31.6-20.6.9,1.5-32.6,19Z" transform="translate(-518.9 -128.1)"/><path d="M672.1,382.8c-5.5,4-10.8,8-16.3,11.8s-8.4,5.6-12.7,8.3l-.6-1.1,29.7-18.9Z" transform="translate(-518.9 -128.1)"/><path d="M991.6,733l14.1,7.3C1000.4,742.9,994.4,740.1,991.6,733Z" transform="translate(-518.9 -128.1)"/></svg>