<svg id="Layer_1" data-name="Layer 1" xmlns="http://www.w3.org/2000/svg" viewBox="0 0 1914.3 1914.9"><defs><style>.cls-1{fill:#fff;}</style></defs><path d="M1672,476.3c26.6-19.8,50.5-36.7,73.6-55.2,38.9-31,75.9-65.5,109.8-105.6,6.1-7.2,13.8-13.5,21.6-16.4,17.6-6.5,37.6,11.2,36.5,35.6-1.4,29.5.1,59.3-1,88.9-1.4,38.2-12.5,73.1-24.1,107.4-33.4,98.9-77,189.8-123.3,278.6-26.3,50.6-54.1,99.9-81.2,149.8-9.2,16.9-17,33.9-20.1,55.5-5.6,38.8-19.2,48.4-46.8,41.3-80.9-20.8-162.5-18-243.9-12-33.5,2.4-66.5,15-99.9,21.4-22.1,4.2-41,17.1-60.3,30.6-85.6,59.8-175.6,103.4-272.2,117.2-116,16.7-231.8,17.2-345.3-26-74.3-28.3-143.9-69.4-202.9-138.1-31.5-36.7-58.4-78.4-78.4-127.4-5.9-14.4-12.5-25.3-25.3-31.1q-52.2-23.5-103.3-51.3a601.3,601.3,0,0,1-70.1-44.4c-11.2-8.3-21-21.5-29.4-34.7Q50.4,704.6,16.7,646.6A132.1,132.1,0,0,1-.5,597.1c-3.3-25.1,19.1-58.5,36.7-58.7,77.7-.7,151-32.8,225.6-55.8,11.8-3.6,23.4-7.9,35.1-11.9,4.9-1.7,9.4-3.8,8.4-13.8-1.4-1.1-3.2-3.5-5.3-4-49.8-12.6-81.7-55.3-105.5-111C175,296.3,162.3,247,156,195.6c-6-49.2-6.5-99,2.4-148,4.1-22.4,7.2-46,15.2-66,11.9-30.2,29-56.8,58.1-56,62.2,1.7,122.7-13.9,183.3-28.5,56.4-13.6,112.4-30.2,168.7-44.7,10.7-2.7,19-8.6,25.9-19.4,40.4-62.8,86.1-118.7,131.7-174.5,85-104,175.5-198.1,276-274.5,41-31.1,83.2-58.7,130.2-70.1,40.3-9.9,79.4-5.6,116.2,20.8,10,7.2,20.6,13.2,30.6,20.6s18.1,18.8,14.8,37.1c-.6,3.7-.1,7.8.1,11.7.8,19.6-4.1,33-17.9,35.9-26.2,5.6-46.8,25.7-67.6,44.2-48.6,43.1-97.3,86.5-143.6,133.8-32.8,33.4-61.9,73.2-92.6,110.2.6,1.6,1.1,3.1,1.7,4.6,3.5-.7,7.2-.8,10.6-2.1,73-28.5,146.3-55.2,218.6-86.4,40.3-17.4,80.3-35.5,122.4-42,52.8-8,106-13.1,158.7,2.2,25.7,7.5,49,21.9,70.2,43,43.1,42.9,59.4,101.1,54.3,170.3-1.3,18.1,2.4,27.2,13.4,36.8,38.5,33.8,68.6,78.1,87.2,134.6,6.4,19.5,10.6,41,12.9,62.2,6,55,6.4,110.7-.4,165.3-5.1,40.8-13.7,81.1-23.7,120.3C1701.9,382.3,1687.1,426.1,1672,476.3Zm-664,653.9c5.5-1.6,8.4-2.2,11.3-3.2,121.1-43.3,226.9-124.4,323.7-228.6,29.6-31.8,55.8-67.9,81.4-105.1,37.4-54.3,75.4-107.7,105.1-170.4,17.9-37.9,37-74.8,55.8-111.9,6.7-13.2,15.7-24.6,20.9-38.7,16.7-46.1,33.9-92.1,47.4-139.8,11.8-41.8,23.1-84.7,25-129.9,1.7-39.2,1.7-78.5,1.6-117.7s-8-72.6-23.5-104.3c-13.2-26.9-28.9-50.5-49.7-68.4-3.2,7.1-6.1,12.3-8.2,18-17.1,47.5-40.8,88.4-69.1,125-43.2,55.8-93,99.3-145.3,138.3l-40.5,30.2c-2.6,57.9-15.5,111-29.8,163.9-16.3,60.4-37.1,118-59.3,174.8a1470.7,1470.7,0,0,1-96.9,202.1c-36.7,63.1-77.3,120.9-129,163.1-8.2,6.7-11.1,14.5-11.6,27-1.9,43.2-4.9,86.2-7.4,129.4C1009.1,1098.2,1008.7,1112.5,1008,1130.2ZM339.5,740.1c-1.8,25.5,5.1,90.4,11.5,110.3q36,112.1,110.9,182.4c58.7,55.3,124.6,87.5,194.3,107.1,87.3,24.5,175.3,22.2,263.5,11.8,8.8-1.1,17.6-3.2,25.9-4.7,2.5-28.5,5-54.6,7-80.9s3.8-54.3,5-81.4c.8-15.7-1.3-17.3-13.1-18.8-19.2-2.3-38.3-5.2-57.4-8.2-35-5.5-68.7-17.9-101.3-35.2-70-37.1-123.7-98.7-157.6-188.6-10.1-27-17-56.2-25.2-84.5-3.8-13.3-7.3-16.3-17.4-12.9-3.5,1.2-6.9,3.3-10.3,4.7Q479.6,682,383.9,722.6C369,728.9,353.9,734.4,339.5,740.1Zm874.3-859.8c-1.9.2-3.2-.1-4.2.5-69.7,39.6-142.8,63.7-216.4,86.3C935.6-15.1,878.3,4.5,820.8,22.9c-8.7,2.8-14.8,7.7-19.7,18.4-11.7,26-25.3,50.5-36.9,76.6C739,174.2,714.3,231,694.8,291.3c-5.5,17.3-9.9,35.2-16,57,9.6.3,16.1,2.4,21.9.5C754,330.9,807.4,313.3,858,284.4q177.9-101.5,355.2-204.8c21.9-12.7,43-28.3,63.8-42.1C1271.2-21,1243.2-82.5,1213.8-119.7Zm-532,714.8c5.8,1.9,11.6,3.9,17.5,5.7,85.3,25.7,172.1,29.5,259.2,31,68.8,1.2,136-12,202.9-30.7,8.9-2.5,14.7-7,19.5-18.1,41.3-95.2,75.9-194,96.9-300.6.8-4.1.1-8.6.1-14.7C1082.1,388.4,883,491.8,681.8,595.1Zm43-538.4c-7.6,1-12.3,1.1-16.8,2.3-16,4-31.9,8.6-47.9,12.7-59,15.2-115.8,38.6-167,81.6a71.9,71.9,0,0,0-16.7,21.1c-36.5,68.8-65.7,143-89.9,220.7-4.6,14.5-8.5,29.4-13.4,46.4,5.1,0,8.1.8,10.8-.1,73.1-24.6,146-49.5,219.1-73.9,9.5-3.2,13.5-10.2,15.9-22.5a553.6,553.6,0,0,1,15.6-61.2c18.3-56.6,38.9-111.6,63.4-163.9C707.1,100.4,714.9,80,724.8,56.7ZM1235.2-607c-15.2-13.5-30-18.7-46-19.5-26-1.3-50.1,8.6-73.7,21.5-65.3,35.5-123.2,87.9-180.1,141.8C864.1-395.6,799.7-317,736.1-237.5c-14.4,17.9-28.2,36.7-45,58.7,7.8-1.3,11.3-1.6,14.7-2.6,53.7-15.1,107.3-30.8,161.2-45.2,15-4,26.1-12.8,36.2-28.1q100.5-152.7,228.3-264.2C1165.2-548.2,1199.4-576.6,1235.2-607ZM1234-198.4c20.2,30.7,41,57.6,57.4,88.6s27.9,65.7,41.6,98.9c22.4-16,62.3-64.8,80.2-94.8,13.5-22.5,16-45.4,6.6-73.8C1358.9-192,1296.9-199.4,1234-198.4Z" transform="translate(0.8 691)"/><path class="cls-1" d="M1008,1130.2c.7-17.7,1.1-32,1.9-46.2,2.5-43.2,5.5-86.2,7.4-129.4.5-12.5,3.4-20.3,11.6-27,51.7-42.2,92.3-100,129-163.1a1470.7,1470.7,0,0,0,96.9-202.1c22.2-56.8,43-114.4,59.3-174.8,14.3-52.9,27.2-106,29.8-163.9l40.5-30.2c52.3-39,102.1-82.5,145.3-138.3,28.3-36.6,52-77.5,69.1-125,2.1-5.7,5-10.9,8.2-18,20.8,17.9,36.5,41.5,49.7,68.4,15.5,31.7,23.4,66.6,23.5,104.3s.1,78.5-1.6,117.7c-1.9,45.2-13.2,88.1-25,129.9-13.5,47.7-30.7,93.7-47.4,139.8-5.2,14.1-14.2,25.5-20.9,38.7-18.8,37.1-37.9,74-55.8,111.9-29.7,62.7-67.7,116.1-105.1,170.4-25.6,37.2-51.8,73.3-81.4,105.1-96.8,104.2-202.6,185.3-323.7,228.6C1016.4,1128,1013.5,1128.6,1008,1130.2Z" transform="translate(0.8 691)"/><path class="cls-1" d="M339.5,740.1c14.4-5.7,29.5-11.2,44.4-17.5q95.7-40.5,191.4-81.4c3.4-1.4,6.8-3.5,10.3-4.7,10.1-3.4,13.6-.4,17.4,12.9,8.2,28.3,15.1,57.5,25.2,84.5,33.9,89.9,87.6,151.5,157.6,188.6,32.6,17.3,66.3,29.7,101.3,35.2,19.1,3,38.2,5.9,57.4,8.2,11.8,1.5,13.9,3.1,13.1,18.8-1.2,27.1-3,54.3-5,81.4s-4.5,52.4-7,80.9c-8.3,1.5-17.1,3.6-25.9,4.7-88.2,10.4-176.2,12.7-263.5-11.8-69.7-19.6-135.6-51.8-194.3-107.1Q387.1,962.3,351,850.4C344.6,830.5,337.7,765.6,339.5,740.1Z" transform="translate(0.8 691)"/><path class="cls-1" d="M724.8,56.7c-9.9,23.3-17.7,43.7-26.9,63.2-24.5,52.3-45.1,107.3-63.4,163.9A553.6,553.6,0,0,0,618.9,345c-2.4,12.3-6.4,19.3-15.9,22.5-73.1,24.4-146,49.3-219.1,73.9-2.7.9-5.7.1-10.8.1,4.9-17,8.8-31.9,13.4-46.4,24.2-77.7,53.4-151.9,89.9-220.7a71.9,71.9,0,0,1,16.7-21.1c51.2-43,108-66.4,167-81.6C676.1,67.6,692,63,708,59,712.5,57.8,717.2,57.7,724.8,56.7Z" transform="translate(0.8 691)"/><path class="cls-1" d="M1235.2-607c-35.8,30.4-70,58.8-103.7,88.1Q1003.6-407.6,903.2-254.7c-10.1,15.3-21.2,24.1-36.2,28.1-53.9,14.4-107.5,30.1-161.2,45.2-3.4,1-6.9,1.3-14.7,2.6,16.8-22,30.6-40.8,45-58.7,63.6-79.5,128-158.1,199.3-225.7,56.9-53.9,114.8-106.3,180.1-141.8,23.6-12.9,47.7-22.8,73.7-21.5C1205.2-625.7,1220-620.5,1235.2-607Z" transform="translate(0.8 691)"/><path class="cls-1" d="M1234-198.4c62.9-1,124.9,6.4,185.8,18.9,9.4,28.4,6.9,51.3-6.6,73.8-17.9,30-57.8,78.8-80.2,94.8-13.7-33.2-25.3-68.1-41.6-98.9S1254.2-167.7,1234-198.4Z" transform="translate(0.8 691)"/></svg>