<svg id="Layer_1" data-name="Layer 1" xmlns="http://www.w3.org/2000/svg" viewBox="0 0 2571.4 2359.6"><defs><style>.cls-1{fill:#fff;}</style></defs><path d="M-63.9,613.7c-79.1-17.1-120.9-73.8-151-141.9C-258.8,373-278.4,269.7-269,161.3c3.7-43.2,10.1-85.6,24-127,9.1-27.1,28.9-45.5,48.7-63.7,7.1-6.5,20-9.9,30.1-9.5,98.1,3,191.9-22.5,286.2-43.9,65.9-15,131.3-32.1,196.8-48.9,6.9-1.7,14.6-6.3,18.7-12,88.1-120.8,187.4-232,292.1-338.3,99.5-101.1,206.6-193.7,329.8-265.7,41.7-24.4,85.4-44.3,134.5-49.4,33-3.5,65.4-1.4,95.3,12.7,26.6,12.6,51.4,28.8,77,43.5a23.3,23.3,0,0,1,3.5,2.7c18.3,16,22.4,73.5,5.9,91.5-4.1,4.5-9.9,9.8-15.5,10.6-35.5,4.8-59.9,29.3-85.4,50-65.4,53.2-131.3,106.3-192.6,164.1-45.8,43.1-84.9,93.5-126.9,140.7-1.5,1.6-2,4-4.7,9.4,35.4-12,68-22.5,100.1-34.1,71.1-25.8,143-49.6,212.5-79.2,42.6-18.1,85.5-34.4,130.1-45.3,64.1-15.8,129.8-17,195.5-12.8q88.3,5.7,151.7,67.4c45.5,44.4,65.2,99.7,67.6,161.9a302,302,0,0,1-2,50.3c-1.8,14.2,1.5,23.3,13.1,32.6,66.6,52.7,112.5,119.8,132.6,202.6,15.8,64.8,16.1,131,12.3,197.2-7,123.6-43.5,239.9-88.5,354.1-1.7,4.3-3.1,8.8-6,16.9,11-6.4,19.2-10.5,26.7-15.6,80.8-54.3,159-111.8,224.2-185.1,13.3-14.9,29.1-23.9,49.8-16.1,18.2,6.8,27,21.7,26.7,46.4-.5,38-.2,76.1-2.9,114-3.5,51.5-21.8,99.4-40.3,147-57.3,147.8-134.4,285.5-215.3,421.3-21.1,35.5-43.6,70.4-62.5,107-9.2,17.8-12.6,38.8-16.8,58.8-6.2,28.5-27.1,46.1-54.5,38.7-94.9-25.8-191.8-19.5-288.2-19.9-62.4-.2-122.2,16.3-182.6,30.2-48.8,11.3-83.8,44.2-125.1,67.1-88.6,49-180.6,89.5-280.2,108.9-88.9,17.2-179.1,21.2-269.6,17.1-88-4-173.6-19.8-256-51.4-93.6-35.9-177.9-86.3-247.4-159.7-49-51.8-86.6-110.7-115.4-175.7-2.9-6.6-9.6-13.2-16.2-16.4-70-34.4-140.8-67.3-210.5-102.3-33-16.5-59.1-41-78.7-73.7-24.7-41.3-54.2-79.8-80.1-120.5-15.4-23.9-29.1-49.3-29.1-79.2-.1-35.4,27.6-63.7,62.7-64.1,59.7-.7,116.4-17.6,173.1-33.4C-186,668-132,650-77.5,633.8-67.3,630.7-62,625.9-63.9,613.7Zm941.4,833.7,18.5-5.9c169.6-57.1,310-159.2,435-284.5,32.7-32.7,64.8-65.9,89.9-105.7,20.5-32.4,47.6-60.6,69.9-91.9,23.8-33.3,47.2-67.1,67.7-102.4,31.1-53.8,58.6-109.6,89.5-163.5,21.3-37.2,42-74.4,57.6-114.5,54.4-140.2,89.5-283.1,75.7-435.3-7-76.4-37.2-140.4-91.3-193.8-2.3-2.3-5.3-3.8-8.7-6.1-27.7,75.2-68,141.4-121.7,199.5C1495.4,212.8,1420.4,269,1341.3,320c-7.7,4.9-11.7,9.8-12.5,19.5-2.2,24.6-5.2,49.2-9.7,73.4-18.2,97-50.8,189.7-87.5,280.9-48.8,121.3-107,237.9-181.4,345.7-40.8,59.1-86.1,114.7-144.7,157.6-10.4,7.6-13.9,16.1-14.3,28.6-1.1,39-3.2,77.9-5.6,116.9C883.5,1376.5,880.4,1410.3,877.5,1447.4Zm-82.1,21.1c1.9-25.3,3.6-48.3,5.4-71.4q5.1-67.9,10.4-135.9c.8-10.3-1.8-16.7-13.9-17.9-29.8-3-59.8-5.4-89.1-11.1-122-23.5-222.6-81.3-293-186.3-39.2-58.5-66.1-122.1-79.6-191.4-3.5-17.8-11-22.2-26.6-16.2C202.2,879.5,95.3,920.4-11.3,961.9c-4,1.6-8.8,8.2-8.6,12.2,2,31,2.3,62.5,8.5,92.8C6.9,1156.4,52,1232.4,115,1297.5c83.3,86,187.2,135.4,302.1,163.2,95.5,23.2,192.7,24.4,290.1,16.6C736.6,1474.9,765.9,1471.5,795.4,1468.5ZM1153.5-96.7c-72.7,39.6-148.7,66.5-226.1,89.5C826.7,22.9,725.7,52.1,625,82.3c-7.7,2.3-16.9,8.1-20.2,14.8-42.4,86-85.2,171.9-125.1,259.1-17.8,39-29.4,80.9-45,125.1,11.7,1.3,20.2,4.7,27.2,2.7,76.8-23.1,153.1-47.8,224.7-84.7C792,344.9,897.5,290.4,1002,234.1c76.7-41.4,151.9-85.7,227.8-128.6,8.6-4.9,12.9-10.3,8.9-21.4s-6-25.8-9.8-38.5C1213.3-6.4,1188.8-53.6,1153.5-96.7Zm92,481.2-4.1-1.9C980.5,530.8,709.8,659.5,436.1,783.1c1.8,2.3,2.3,3.4,3,3.6,4.3,1.4,8.5,2.6,12.8,3.8,87.3,24.6,176.5,34.9,266.9,39.7,126.1,6.7,250.3-1.7,371.7-38.3,6.1-1.8,13.4-6.9,16-12.4,43-89.7,80.8-181.5,108-277.3C1225.6,463.2,1235.2,423.8,1245.5,384.5ZM25,599.2c2.7.6,3.8,1.2,4.5.9Q185,552,340.4,503.2c4.8-1.5,9.6-7.9,11.3-13.1,7.9-25.4,14.3-51.3,22.1-76.8,29.8-96.1,75-185.7,118-276.2,2.4-5,4.4-10.1,7.4-17-26.9,6.6-51.2,12.9-75.7,18.4-86.2,19.4-167.6,49.7-238.1,104.6-7.6,5.9-14.9,13.4-19.5,21.7-16.4,29.8-32.3,60-47.1,90.6C80.7,433.7,49.8,514.7,25,599.2ZM1184.3-695.7c-39.5-29.8-82.6-29.6-125.2-12.1-34.1,14-67.7,30.8-98.4,51A1597.4,1597.4,0,0,0,675.6-416.7c-71.7,76.2-140.2,155.5-210.1,233.5-3.9,4.4-7.1,9.5-12.1,16.3,5.5-.4,7.5-.3,9.4-.8,81.2-21.2,162.4-42.1,243.5-63.9,7.2-2,14.6-8.1,19.1-14.4,88.7-122.1,188-234.3,305.6-329.4C1081.2-616,1132.6-655.2,1184.3-695.7ZM1175-190.9c68.7,67.1,112.7,144.6,136.6,235.9,45.7-38.1,83.2-80.1,114.2-128.1,14.4-22.3,16.9-45.7,10.6-70.9-2.4-9.6-6-15.4-17.1-16.5-62.8-6.4-125.6-13.9-188.4-20.2C1213.5-192.4,1195.8-190.9,1175-190.9Z" transform="translate(476.5 798.6)"/><path class="cls-1" d="M877.5,1447.4c2.9-37.1,6-70.9,8.1-104.8,2.4-39,4.5-77.9,5.6-116.9.4-12.5,3.9-21,14.3-28.6,58.6-42.9,103.9-98.5,144.7-157.6,74.4-107.8,132.6-224.4,181.4-345.7,36.7-91.2,69.3-183.9,87.5-280.9,4.5-24.2,7.5-48.8,9.7-73.4.8-9.7,4.8-14.6,12.5-19.5,79.1-51,154.1-107.2,218.3-176.7,53.7-58.1,94-124.3,121.7-199.5,3.4,2.3,6.4,3.8,8.7,6.1,54.1,53.4,84.3,117.4,91.3,193.8,13.8,152.2-21.3,295.1-75.7,435.3-15.6,40.1-36.3,77.3-57.6,114.5-30.9,53.9-58.4,109.7-89.5,163.5-20.5,35.3-43.9,69.1-67.7,102.4-22.3,31.3-49.4,59.5-69.9,91.9-25.1,39.8-57.2,73-89.9,105.7-125,125.3-265.4,227.4-435,284.5Z" transform="translate(476.5 798.6)"/><path class="cls-1" d="M795.4,1468.5c-29.5,3-58.8,6.4-88.2,8.8-97.4,7.8-194.6,6.6-290.1-16.6-114.9-27.8-218.8-77.2-302.1-163.2C52,1232.4,6.9,1156.4-11.4,1066.9c-6.2-30.3-6.5-61.8-8.5-92.8-.2-4,4.6-10.6,8.6-12.2C95.3,920.4,202.2,879.5,309,838.3c15.6-6,23.1-1.6,26.6,16.2,13.5,69.3,40.4,132.9,79.6,191.4,70.4,105,171,162.8,293,186.3,29.3,5.7,59.3,8.1,89.1,11.1,12.1,1.2,14.7,7.6,13.9,17.9q-5.2,68-10.4,135.9C799,1420.2,797.3,1443.2,795.4,1468.5Z" transform="translate(476.5 798.6)"/><path class="cls-1" d="M1153.5-96.7c35.3,43.1,59.8,90.3,75.4,142.3,3.8,12.7,5.3,26.2,9.8,38.5s-.3,16.5-8.9,21.4c-75.9,42.9-151.1,87.2-227.8,128.6C897.5,290.4,792,344.9,686.6,399.3,615,436.2,538.7,460.9,461.9,484c-7,2-15.5-1.4-27.2-2.7,15.6-44.2,27.2-86.1,45-125.1C519.6,269,562.4,183.1,604.8,97.1c3.3-6.7,12.5-12.5,20.2-14.8C725.7,52.1,826.7,22.9,927.4-7.2,1004.8-30.2,1080.8-57.1,1153.5-96.7Z" transform="translate(476.5 798.6)"/><path class="cls-1" d="M1245.5,384.5c-10.3,39.3-19.9,78.7-31,117.7-27.2,95.8-65,187.6-108,277.3-2.6,5.5-9.9,10.6-16,12.4-121.4,36.6-245.6,45-371.7,38.3-90.4-4.8-179.6-15.1-266.9-39.7-4.3-1.2-8.5-2.4-12.8-3.8-.7-.2-1.2-1.3-3-3.6,273.7-123.6,544.4-252.3,805.3-400.5Z" transform="translate(476.5 798.6)"/><path class="cls-1" d="M25,599.2c24.8-84.5,55.7-165.5,93.8-243.8,14.8-30.6,30.7-60.8,47.1-90.6,4.6-8.3,11.9-15.8,19.5-21.7,70.5-54.9,151.9-85.2,238.1-104.6,24.5-5.5,48.8-11.8,75.7-18.4-3,6.9-5,12-7.4,17-43,90.5-88.2,180.1-118,276.2-7.8,25.5-14.2,51.4-22.1,76.8-1.7,5.2-6.5,11.6-11.3,13.1Q185.2,552.3,29.5,600.1C28.8,600.4,27.7,599.8,25,599.2Z" transform="translate(476.5 798.6)"/><path class="cls-1" d="M1184.3-695.7c-51.7,40.5-103.1,79.7-153.3,120.3C913.4-480.3,814.1-368.1,725.4-246c-4.5,6.3-11.9,12.4-19.1,14.4-81.1,21.8-162.3,42.7-243.5,63.9-1.9.5-3.9.4-9.4.8,5-6.8,8.2-11.9,12.1-16.3,69.9-78,138.4-157.3,210.1-233.5A1597.4,1597.4,0,0,1,960.7-656.8c30.7-20.2,64.3-37,98.4-51C1101.7-725.3,1144.8-725.5,1184.3-695.7Z" transform="translate(476.5 798.6)"/><path class="cls-1" d="M1175-190.9c20.8,0,38.5-1.5,55.9.2,62.8,6.3,125.6,13.8,188.4,20.2,11.1,1.1,14.7,6.9,17.1,16.5,6.3,25.2,3.8,48.6-10.6,70.9-31,48-68.5,90-114.2,128.1C1287.7-46.3,1243.7-123.8,1175-190.9Z" transform="translate(476.5 798.6)"/></svg>